<?xml version="1.0" encoding="iso-8859-1"?>
<!-- Generator: Adobe Illustrator 19.0.0, SVG Export Plug-In . SVG Version: 6.00 Build 0)  -->
<svg version="1.1" id="Layer_1" xmlns="http://www.w3.org/2000/svg" xmlns:xlink="http://www.w3.org/1999/xlink" x="0px" y="0px"
	 viewBox="0 0 512 512" style="enable-background:new 0 0 512 512;" xml:space="preserve">
<path style="fill:#A9D5BB;" d="M439.242,482.358H72.758c-23.812,0-43.116-19.304-43.116-43.116V72.758
	c0-23.812,19.304-43.116,43.116-43.116h366.484c23.812,0,43.116,19.304,43.116,43.116v366.484
	C482.358,463.054,463.054,482.358,439.242,482.358z"/>
<path style="fill:#FFFF81;" d="M406.905,99.705c0,50.601-41.02,91.621-91.621,91.621s-91.621-41.02-91.621-91.621
	s41.02-91.621,91.621-91.621S406.905,49.105,406.905,99.705z"/>
<path style="fill:#FFF145;" d="M363.789,99.705c0,26.789-21.716,48.505-48.505,48.505c-26.789,0-48.505-21.716-48.505-48.505
	S288.495,51.2,315.284,51.2C342.073,51.2,363.789,72.916,363.789,99.705z"/>
<path style="fill:#7F932A;" d="M503.916,56.589v156.295V256v204.8c0,23.812-19.304,43.116-43.116,43.116H51.2
	c-23.812,0-43.116-19.304-43.116-43.116V212.884V56.589c0-26.789,21.716-48.505,48.505-48.505l0,0
	c26.789,0,48.505,21.716,48.505,48.505v12.64c8.893-10.995,22.485-18.03,37.726-18.03l0,0c26.789,0,48.505,21.716,48.505,48.505
	v59.284c0,29.765,24.13,53.895,53.895,53.895h75.453v-32.337v-32.337v-26.947c0-26.789,21.716-48.505,48.505-48.505l0,0
	c15.241,0,28.834,7.035,37.726,18.03V56.589c0-26.789,21.716-48.505,48.505-48.505l0,0C482.199,8.084,503.916,29.801,503.916,56.589
	z"/>
<path style="fill:#DBCB9C;" d="M503.916,482.358c0,11.906-9.651,21.558-21.558,21.558H51.2c-23.812,0-43.116-19.304-43.116-43.116
	V353.01h398.821L471.579,256h32.337V482.358z"/>
<path style="fill:#A9A632;" d="M450.021,245.221v21.558c0,35.718-28.955,64.674-64.674,64.674H8.084V180.547h377.263
	C421.066,180.547,450.021,209.503,450.021,245.221z"/>
<path style="fill:#606D11;" d="M320.674,385.347H75.992L8.084,460.8V196.716c0-26.789,21.716-48.505,48.505-48.505l0,0
	c26.789,0,48.505,21.716,48.505,48.505v34.198c8.893-10.995,22.485-18.03,37.726-18.03l0,0c26.789,0,48.505,21.716,48.505,48.505
	v5.389h75.453c29.765,0,53.895,24.13,53.895,53.895V385.347z"/>
<path style="fill:#C5EAD4;" d="M385.347,148.211c65.483,0,118.568,53.085,118.568,118.568l0,0
	c0,65.483-53.085,118.568-118.568,118.568H126.653c-29.765,0-53.895,24.13-53.895,53.895v64.674H51.2
	c-23.812,0-43.116-19.304-43.116-43.116v-21.558c0-65.483,53.085-118.568,118.568-118.568h258.695
	c29.765,0,53.895-24.13,53.895-53.895l0,0c0-29.765-24.13-53.895-53.895-53.895H245.221c-29.765,0-53.895-24.13-53.895-53.895
	v-10.779H385.347z"/>
<path style="fill:#BCAE8A;" d="M320.674,433.853L320.674,433.853c0,8.929-7.239,16.168-16.168,16.168h-21.558
	c-8.929,0-16.168-7.239-16.168-16.168l0,0c0-8.929,7.239-16.168,16.168-16.168h21.558
	C313.435,417.684,320.674,424.923,320.674,433.853z M401.516,439.242h-21.558c-8.929,0-16.168,7.239-16.168,16.168l0,0
	c0,8.929,7.239,16.168,16.168,16.168h21.558c8.929,0,16.168-7.239,16.168-16.168l0,0
	C417.684,446.481,410.445,439.242,401.516,439.242z M180.547,374.568h-53.895c-29.765,0-53.895,24.13-53.895,53.895v75.453h140.126
	c11.906,0,21.558-9.651,21.558-21.558v-53.895C234.442,398.698,210.312,374.568,180.547,374.568z"/>
<path style="fill:#998C6E;" d="M460.8,390.737c0,8.929-7.239,16.168-16.168,16.168h-64.674c-8.929,0-16.168-7.239-16.168-16.168
	c0-8.929,7.239-16.168,16.168-16.168h64.674C453.561,374.568,460.8,381.808,460.8,390.737z M105.095,428.463H83.537
	c-23.812,0-43.116,19.304-43.116,43.116v10.779c0,11.906,9.651,21.558,21.558,21.558h64.674c11.906,0,21.558-9.651,21.558-21.558
	v-10.779C148.211,447.767,128.907,428.463,105.095,428.463z"/>
<path d="M0,353.01V196.716c0-31.204,25.387-56.589,56.589-56.589s56.589,25.385,56.589,56.589v16.452
	c8.798-5.422,19.005-8.368,29.642-8.368c30.301,0,55.116,23.937,56.526,53.895h67.432c22.622,0,43.45,12.328,54.353,32.171
	c2.149,3.913,0.721,8.828-3.193,10.978s-8.828,0.719-10.978-3.192c-8.062-14.673-23.458-23.789-40.182-23.789h-75.453
	c-4.466,0-8.084-3.62-8.084-8.084v-5.389c0-22.289-18.132-40.421-40.421-40.421c-12.255,0-23.715,5.478-31.441,15.029
	c-2.155,2.662-5.753,3.68-8.982,2.537c-3.228-1.143-5.387-4.196-5.387-7.621v-34.198c0-22.289-18.132-40.421-40.421-40.421
	s-40.421,18.132-40.421,40.421V353.01c0,4.465-3.618,8.084-8.084,8.084S0,357.475,0,353.01z M315.284,59.284
	c5.903,0,11.586,1.241,16.897,3.687c4.053,1.866,8.857,0.096,10.725-3.958c1.868-4.055,0.097-8.857-3.959-10.726
	c-7.446-3.432-15.409-5.172-23.663-5.172c-31.203,0-56.589,25.385-56.589,56.589c0,11.251,3.296,22.124,9.532,31.442
	c1.56,2.329,4.119,3.589,6.726,3.589c1.546,0,3.109-0.443,4.488-1.367c3.71-2.483,4.706-7.504,2.224-11.214
	c-4.45-6.648-6.802-14.411-6.802-22.45C274.863,77.417,292.995,59.284,315.284,59.284z M227.339,133.578
	c0.751,0,1.517-0.106,2.274-0.328c4.286-1.255,6.741-5.745,5.488-10.03c-2.225-7.6-3.353-15.512-3.353-23.515
	c0-46.062,37.475-83.537,83.537-83.537c24.141,0,47.095,10.443,62.978,28.653c2.936,3.365,8.042,3.712,11.406,0.778
	c3.365-2.935,3.713-8.041,0.779-11.406C371.492,12.463,344.096,0,315.284,0c-54.978,0-99.705,44.727-99.705,99.705
	c0,9.542,1.347,18.982,4.004,28.058C220.616,131.29,223.841,133.578,227.339,133.578z M156.295,471.579v10.779
	c0,16.345-13.298,29.642-29.642,29.642H51.2C22.969,512,0,489.031,0,460.8v-21.558c0-69.837,56.816-126.653,126.653-126.653h258.695
	c25.26,0,45.811-20.55,45.811-45.811s-20.55-45.811-45.811-45.811H245.221c-34.176,0-61.979-27.803-61.979-61.979V99.705
	c0-22.289-18.132-40.421-40.421-40.421c-12.255,0-23.715,5.478-31.441,15.029c-2.155,2.662-5.753,3.68-8.982,2.537
	c-3.228-1.143-5.387-4.196-5.387-7.621v-12.64c0-22.289-18.132-40.421-40.421-40.421S16.168,34.301,16.168,56.589v80.303
	c0,4.465-3.618,8.084-8.084,8.084S0,141.357,0,136.893V56.589C0,25.385,25.387,0,56.589,0c29.528,0,53.846,22.735,56.373,51.617
	c8.847-5.507,19.135-8.501,29.859-8.501c31.203,0,56.589,25.386,56.589,56.589v59.284c0,25.26,20.55,45.811,45.811,45.811h140.126
	c34.176,0,61.979,27.803,61.979,61.979s-27.803,61.979-61.979,61.979H126.653c-60.922,0-110.484,49.563-110.484,110.484V460.8
	c0,12.929,7.04,24.244,17.489,30.315c-0.858-2.769-1.32-5.71-1.32-8.757v-10.779c0-28.231,22.969-51.2,51.2-51.2h21.558
	C133.326,420.379,156.295,443.348,156.295,471.579z M140.126,471.579c0-19.316-15.715-35.032-35.032-35.032H83.537
	c-19.317,0-35.032,15.716-35.032,35.032v10.779c0,7.43,6.044,13.474,13.474,13.474h10.779h53.895c7.43,0,13.474-6.044,13.474-13.474
	V471.579z M406.905,495.832H239.283c2.073-4.044,3.243-8.625,3.243-13.474v-53.895c0-34.176-27.803-61.979-61.979-61.979h-53.895
	c-22.594,0-43.408,12.305-54.321,32.113c-2.154,3.911-0.731,8.827,3.18,10.982c3.913,2.155,8.828,0.73,10.982-3.181
	c8.069-14.646,23.457-23.745,40.159-23.745h53.895c25.26,0,45.811,20.55,45.811,45.811v53.895c0,7.43-6.044,13.474-13.474,13.474
	h-43.116c-4.466,0-8.084,3.62-8.084,8.084s3.618,8.084,8.084,8.084h237.137c4.466,0,8.084-3.62,8.084-8.084
	S411.371,495.832,406.905,495.832z M425.768,455.41c0,13.373-10.88,24.253-24.253,24.253h-21.558
	c-13.372,0-24.253-10.879-24.253-24.253c0-13.373,10.88-24.253,24.253-24.253h21.558
	C414.888,431.158,425.768,442.037,425.768,455.41z M409.6,455.41c0-4.458-3.626-8.084-8.084-8.084h-21.558
	c-4.458,0-8.084,3.626-8.084,8.084c0,4.458,3.626,8.084,8.084,8.084h21.558C405.974,463.495,409.6,459.869,409.6,455.41z
	 M503.916,495.832H440.32c-4.466,0-8.084,3.62-8.084,8.084S435.854,512,440.32,512h63.596c4.466,0,8.084-3.62,8.084-8.084
	S508.382,495.832,503.916,495.832z M482.358,479.663c4.466,0,8.084-3.62,8.084-8.084s-3.618-8.084-8.084-8.084H450.56
	c-4.466,0-8.084,3.62-8.084,8.084s3.618,8.084,8.084,8.084H482.358z M282.947,458.105c-13.372,0-24.253-10.879-24.253-24.253
	c0-13.373,10.88-24.253,24.253-24.253h21.558c13.372,0,24.253,10.879,24.253,24.253c0,13.373-10.88,24.253-24.253,24.253H282.947z
	 M282.947,441.937h21.558c4.458,0,8.084-3.626,8.084-8.084s-3.626-8.084-8.084-8.084h-21.558c-4.458,0-8.084,3.626-8.084,8.084
	S278.489,441.937,282.947,441.937z M495.832,180.547V56.589c0-22.289-18.132-40.421-40.421-40.421
	c-22.289,0-40.421,18.132-40.421,40.421v34.198c0,3.426-2.159,6.479-5.387,7.621c-3.233,1.143-6.828,0.125-8.982-2.537
	c-7.726-9.551-19.187-15.029-31.441-15.029c-22.289,0-40.421,18.132-40.421,40.421v18.863h56.589
	c69.837,0,126.653,56.816,126.653,126.653c0,24.475-6.996,48.228-20.23,68.693c-8.942,13.826-20.411,25.703-33.747,35.054
	c6.541,4.348,10.861,11.785,10.861,20.211c0,13.373-10.88,24.253-24.253,24.253h-64.674c-12.463,0-22.759-9.449-24.104-21.558H256
	c-4.466,0-8.084-3.62-8.084-8.084s3.618-8.084,8.084-8.084h103.801c4.356-6.495,11.765-10.779,20.157-10.779h53.053
	c38.184-18.291,62.821-57.356,62.821-99.705c0-60.922-49.563-110.484-110.484-110.484h-64.584c-0.059,0.001-0.12,0.001-0.179,0
	h-96.921c-4.466,0-8.084-3.62-8.084-8.084c0-4.465,3.618-8.084,8.084-8.084h88.926v-18.863c0-31.204,25.387-56.589,56.589-56.589
	c10.637,0,20.844,2.945,29.642,8.368V56.589C398.821,25.385,424.208,0,455.41,0S512,25.385,512,56.589v123.958
	c0,4.465-3.618,8.084-8.084,8.084S495.832,185.012,495.832,180.547z M452.716,390.737c0-4.458-3.626-8.084-8.084-8.084h-64.674
	c-4.458,0-8.084,3.626-8.084,8.084s3.626,8.084,8.084,8.084h64.674C449.09,398.821,452.716,395.195,452.716,390.737z"/>
<g>
</g>
<g>
</g>
<g>
</g>
<g>
</g>
<g>
</g>
<g>
</g>
<g>
</g>
<g>
</g>
<g>
</g>
<g>
</g>
<g>
</g>
<g>
</g>
<g>
</g>
<g>
</g>
<g>
</g>
</svg>
